PathFileType	4	(X/Y/Z)	Patient4_TMGait_0pt2_01_right_20.trc.trc
DataRate	CameraRate	NumFrames	NumMarkers	Units	OrigDataRate	OrigDataStartFrame	OrigNumFrames
45.901639344262	45.901639344262	4	33	mm	45.901639344262	89	       141
Frame#	Time	Sacral			L.Shoulder			Chest			R.Shoulder			Neck			R.ASIS			L.ASIS			R.Thigh.Superior			R.Thigh.Lateral			R.Thigh.Inferior			R.Patella			L.Thigh.Superior			L.Thigh.Lateral			L.Thigh.Inferior			L.Patella			L.Shank.Superior			L.Shank.Lateral			L.Shank.Inferior			R.Shank.Superior			R.Shank.Lateral			R.Shank.Inferior			R.Heel			R.Midfoot.Superior			R.Midfoot.Lateral			R.Toe			L.Heel			L.Midfoot.Lateral			L.Midfoot.Superior			L.Toe			L.Elbow			L.Wrist			R.Elbow			R.Wrist			
		X1	Y1	Z1	X2	Y2	Z2	X3	Y3	Z3	X4	Y4	Z4	X5	Y5	Z5	X6	Y6	Z6	X7	Y7	Z7	X8	Y8	Z8	X9	Y9	Z9	X10	Y10	Z10	X11	Y11	Z11	X12	Y12	Z12	X13	Y13	Z13	X14	Y14	Z14	X15	Y15	Z15	X16	Y16	Z16	X17	Y17	Z17	X18	Y18	Z18	X19	Y19	Z19	X20	Y20	Z20	X21	Y21	Z21	X22	Y22	Z22	X23	Y23	Z23	X24	Y24	Z24	X25	Y25	Z25	X26	Y26	Z26	X27	Y27	Z27	X28	Y28	Z28	X29	Y29	Z29	X30	Y30	Z30	X31	Y31	Z31	X32	Y32	Z32	X33	Y33	Z33	

89	46.897142857143	708.246121130548	1010.224821569180	527.101287812511	848.462371938331	1422.954017365886	304.069127133666	990.084477731395	1350.317003375502	431.440243556079	961.378500099466	1431.891126206667	617.315309479753	875.507446094955	1487.761766276391	457.751087732887	949.136292294455	924.560324068161	597.371057642020	887.992628366098	956.851862204039	332.317728756646	932.890558119441	710.854665511247	572.530486004665	835.003948594464	620.664637920132	648.792468928835	882.712436145847	551.265538942688	562.473097031338	857.875166747132	458.903933921503	574.334528733661	961.292288917501	762.587362122270	374.351320846544	894.842216034226	631.526301724423	309.960926337431	989.046769029461	566.868006920632	374.237901239231	998.891076869450	493.648526248839	380.360133448852	970.622170610373	419.469188998610	370.771394150533	883.865539121742	307.727606569483	310.761463745572	928.001329346433	193.498306393549	380.337985553069	796.376938721440	387.406526529014	592.110440713184	699.955547887222	320.363056578475	670.502622324712	695.180210653756	214.560945075342	611.683778084742	507.695412270937	93.658827551652	609.659058295841	689.487286013098	104.809457996463	627.173132402729	593.928195174703	64.560152044459	673.748735121438	793.707652697688	36.392575471572	643.818989293372	793.205996085940	39.537183272671	404.586525614145	874.054444862533	36.930707612115	331.189958401850	955.975256911360	96.626636834086	365.512609304590	1085.328257897619	41.764985261465	347.176013892188	708.366836447151	1095.301835702036	228.728601489907	670.667139833325	837.782261735186	265.954457029772	1171.910253672558	1158.635743095587	667.813514202397	1360.074214031637	1232.652305019149	511.229667596902	
90	46.918928571429	709.485415929926	1010.508976550584	521.522197815326	851.221833782398	1423.446251716313	299.978595370092	991.669801271609	1350.837065011132	428.641443814273	961.304896864186	1432.346976208208	614.293743915189	876.722459403380	1488.238566576595	454.127600668632	949.887124527840	924.893319735130	593.589495464810	890.623373000430	957.054042024207	328.087119252855	933.795599630728	711.233684469640	569.562265381369	835.617699272548	621.369816239331	645.793636256855	884.112809160241	551.392856961953	560.266855735241	859.150517919326	458.561862711975	572.826145009156	962.722760590151	761.902248207315	370.538117498581	895.427231264622	630.964026476093	306.908796863392	989.057761835728	565.998793556901	371.693749556666	998.434490683768	492.654749161257	378.221297594553	969.460986088706	418.502375101642	369.088921840739	881.828891302142	307.187426333918	309.618595844292	924.735959309434	193.029174446234	379.859695567438	796.667655804901	387.815962781948	590.597849278151	699.135425836289	322.348274284029	668.871545548157	693.692909426284	216.026545045020	610.955765660609	504.882209532037	97.405537907234	609.075726369264	686.933867827909	105.348727808670	627.004734768747	590.544613181308	66.851859787891	673.377004072115	789.516796832698	36.427652470552	643.766147350506	788.853038691088	39.577469416005	404.621214897178	869.690862301989	36.918506958507	331.240087899851	951.651019712799	96.569873232883	365.511893831149	1080.988473281076	41.557879989437	347.157841428425	714.302751964497	1094.860592118820	221.300833019943	680.370936870248	836.537765374783	256.370453217322	1168.235686645526	1155.125220058405	667.223546918974	1363.987467965465	1218.969131519949	514.744775783597	
91	46.940714285714	710.627213612686	1010.691919820419	515.950159286158	853.866247097756	1423.995823250213	296.094045834498	993.057156168555	1351.404241757840	426.091177733686	960.948183124468	1432.737072415795	611.535108320976	877.769074830700	1488.716929076604	450.748591943499	950.579627262902	925.248534717688	589.865589674601	893.227235150546	957.270804708806	323.909214350528	935.116020502269	711.671690061859	566.566371288587	836.876881492413	621.888790578455	642.694872681686	886.360995390017	551.465925448989	557.961431033094	861.421037164018	457.986337459871	571.299935367288	964.153764199697	761.180402628573	366.737824924037	895.992624899123	630.379913217771	303.911623836658	989.006196957784	565.096719847226	369.234294312796	997.895025859207	491.657688067995	376.176268108579	968.229815885402	417.540960235836	367.476046754891	879.743045438350	306.654680717118	308.519646901191	921.433956192231	192.572001828392	379.429065006357	797.800132633602	388.075761427905	589.059373324579	699.018281327367	324.381140430105	667.159169610110	692.777857568959	217.525126319316	610.229890973769	502.412112867446	101.589187269353	608.519216842421	684.681338768678	105.872483700274	626.857508398942	587.381970012020	69.380176526819	673.022770098579	785.403648579406	36.463976724295	643.711433339474	784.491998066576	39.633586024189	404.669964714114	865.311393821914	36.914815662944	331.296081888064	947.327244950254	96.501008754778	365.513586882765	1076.634994847426	41.332025345061	347.124542699338	720.403187034567	1094.390831059438	214.009404878619	690.789492700253	835.275576703260	246.859835070965	1163.331364210880	1150.701322368092	666.940887494303	1366.784699519029	1202.527351488856	519.415417482110	
92	46.962500000000	711.670436835833	1010.765664300123	510.363199735084	856.413763982862	1424.602462752330	292.418648952317	994.255422171736	1352.015769774167	423.796709939838	960.297938739528	1433.043366574693	609.047836031217	878.644313136334	1489.191033124505	447.603329333472	951.208034153845	925.623562667743	586.203021596025	895.819613692148	957.509966670822	319.786105277078	936.917381843834	712.175355905508	563.538091883036	838.876968993200	622.208934891672	639.504313008122	889.561392257470	551.486897206512	555.557489402619	864.802309454009	457.186178834300	569.758122478864	965.612750927727	760.434431762504	362.986584680193	896.597961788471	629.772885661938	300.991150875336	988.951150159259	564.173813316545	366.903771554600	997.346655772517	490.657836818271	374.263045510486	966.987568032080	416.585191742796	365.963803811036	877.653358922827	306.143888242288	307.490736626464	918.124115896332	192.130692358087	379.064064929561	799.898795963442	388.183523306187	587.507711965415	699.734227255215	326.484722844014	665.379707214015	692.540273504969	219.087371400885	609.527271286289	500.398570481137	106.338430065053	608.027061220493	682.784690220139	106.392651148713	626.747562570516	584.508048036808	72.218886388208	672.706239195743	781.374128812444	36.477719501479	643.653023611969	780.136008796191	39.716090196772	404.739550538594	860.928724368449	36.934001512197	331.366543344489	943.014885516024	96.431507388526	365.530156321260	1072.277419305113	41.095863709728	347.081961440122	726.756626064381	1093.868424435136	206.877074752337	702.002460119320	833.998061517833	237.458574045182	1157.155925732008	1145.423115509997	666.933167628770	1368.047592034109	1183.202440865352	525.246793816228	
